# xmcd
#
# Track frame offsets:
#	150
#	15197
#	31395
#	47130
#	62175
#	80170
#	97165
#	114575
#	131162
#	147077
#	163520
#	181787
#	199810
#	214065
#	230470
#	247840
#	262470
#	281937
#	298542
#	313775
#
# Disc length: 4441 seconds
#
# Revision: 4
# Processed by: cddbd v1.5.2PL0 Copyright (c) Steve Scherf et al.
# Submitted via: dBpowerAMP V4.0
#
DISCID=31115714
DTITLE=Various Artist - Hit Explosion 1997 - 12a
DYEAR=1997
DGENRE=Eurodance
TTITLE0=Aqua - Doctor Jones
TTITLE1=Boston Dj's - Move your body
TTITLE2=Boris Dlugosch - Hold your head up high
TTITLE3=T-Spoon - Message of love
TTITLE4=Puff Daddy - Been around the world
TTITLE5=Prince Igor and Warren G - The rapsody
TTITLE6=Paradisio - Dime como
TTITLE7=Mr President - Take me to the limit
TTITLE8=Encore - Le disc jockey
TTITLE9=Mase - Feel so good
TTITLE10=En Vogue - Too gone, too long
TTITLE11=Wes - Awa awa
TTITLE12=Moby - James Bond theme
TTITLE13=Brooklyn Bounce - The real bass
TTITLE14=Whigfield - No tears to cry
TTITLE15=UB40 - Always there
TTITLE16=Toni Braxton and Babyface - How could an angel break
TTITLE17=Zohra - I hate 2 love u
TTITLE18=Dj Madman - Schoonmoeder
TTITLE19=Freek de Jonge - Heer heb meelij
EXTD=
EXTT0=
EXTT1=
EXTT2=
EXTT3=
EXTT4=
EXTT5=
EXTT6=
EXTT7=
EXTT8=
EXTT9=
EXTT10=
EXTT11=
EXTT12=
EXTT13=
EXTT14=
EXTT15=
EXTT16=
EXTT17=
EXTT18=
EXTT19=
PLAYORDER=
